<svg width="114" height="113" viewBox="0 0 114 113" fill="none" xmlns="http://www.w3.org/2000/svg">
<g filter="url(#filter0_d_75_251)">
<path d="M56.9503 106.468C54.7412 106.468 52.733 105.023 51.9525 102.872C51.9277 102.805 51.8695 102.757 51.8003 102.749C41.4371 101.561 31.6252 96.7298 24.1705 89.1448L24.055 89.037C23.4472 88.425 23.095 87.5581 23.095 86.6646C23.095 85.9786 23.2925 85.322 23.649 84.7848C23.6815 84.7358 23.69 84.6743 23.6729 84.6182C23.6566 84.5612 23.6156 84.5158 23.5617 84.4953C23.2369 84.3679 22.9359 84.1835 22.6906 83.9616C22.3939 83.6463 20.1703 81.2551 18.8845 79.9223C18.0322 78.9851 17.8979 77.6426 17.8808 76.3312C17.8808 75.149 18.0467 74.0995 18.098 73.8064C18.1159 73.72 18.1381 73.6354 18.1945 73.5267C18.2407 73.4438 18.3775 73.238 18.6314 73.1908C18.6844 73.1774 18.7255 73.1721 18.7639 73.1721C18.8357 73.1721 18.9127 73.1881 18.9956 73.2211C19.017 73.2282 19.0384 73.2318 19.0606 73.2318C19.0999 73.2318 19.1384 73.2193 19.1717 73.1935C19.2213 73.1542 19.2487 73.091 19.2452 73.0269C19.235 72.8763 19.2239 72.7231 19.2239 72.5583C19.2239 71.5382 19.4829 70.4745 19.9932 69.3947L20.0736 69.3501C20.1129 69.3546 20.1403 69.3823 20.1471 69.417C20.1488 69.4223 20.1497 69.4277 20.1514 69.4322C20.3429 70.3097 20.5763 71.0126 20.7413 71.4545C20.8191 71.6736 20.9088 71.8999 21.0105 72.1262C21.0319 72.1751 21.0721 72.2117 21.1217 72.2277C21.1396 72.234 21.1584 72.2366 21.1772 72.2366C21.2088 72.2366 21.2405 72.2277 21.2687 72.2117L21.491 72.0861C21.5303 72.0647 21.5611 72.0291 21.5773 71.9854C22.0321 70.7613 23.1666 69.907 23.1786 69.8981C23.2384 69.8526 23.2675 69.7751 23.2513 69.7003C22.6691 66.9617 23.6112 64.404 23.6214 64.379C23.6454 64.314 23.6343 64.2401 23.5915 64.1857C23.3505 63.881 22.911 63.5675 22.2844 63.253C22.2596 63.2405 22.2323 63.2342 22.2041 63.2342C22.1895 63.2342 22.1741 63.236 22.1605 63.2396C20.1848 63.751 18.5203 64.5661 17.4713 65.1612C17.3901 65.2076 17.3541 65.31 17.3883 65.4C18.1894 67.5247 18.8964 67.8027 18.9751 67.8276C19.0332 67.8419 19.064 67.8837 19.0588 67.931C19.0537 67.9746 19.0178 68.0103 18.9776 68.0103C17.1327 67.964 16.1368 67.3252 15.6263 66.7987L15.5366 66.6981C15.4947 66.6509 15.416 66.6081 15.3493 66.6081C15.3323 66.6081 15.3168 66.6108 15.3023 66.617C15.2493 66.6383 15.1895 66.6553 15.1253 66.6642L15.0604 66.6624C15.039 66.6606 14.4158 66.6125 13.9977 66.559C13.8481 66.5412 13.7558 66.5296 13.6412 66.4957C13.5942 66.4815 13.5711 66.4752 13.4984 66.42C13.4078 66.3345 13.3771 66.2703 13.3445 66.2017C13.312 66.1341 13.2898 66.0797 13.2855 66.0592C12.1006 63.2378 9.62904 61.4436 8.62111 60.8013C8.32273 60.6124 8.18939 60.5055 8.13126 60.4574L8.04231 60.3887L7.73027 60.1036C6.97366 59.3696 6.61373 58.5526 6.6334 57.6082C6.63511 56.6238 7.02154 55.9762 7.25148 55.5895C7.33612 55.4478 7.39684 55.3454 7.42676 55.2536C8.41762 52.6264 11.1011 48.3795 14.9807 43.3033C15.0115 43.2632 15.0252 43.2124 15.0201 43.1608C14.9714 42.7278 14.9483 42.3394 14.9483 41.9723C14.9585 38.2262 17.1078 36.2092 18.032 35.5151C18.0875 35.4741 18.1157 35.4029 18.1064 35.3325C18.0456 34.8834 18.0149 34.4728 18.0149 34.1102C18.0192 33.7432 18.0371 33.3174 18.197 32.9378C18.2791 32.7462 18.4373 32.4496 18.6287 32.0897L18.9254 31.5258C19.1494 31.1035 19.558 30.3044 19.7794 29.7083C19.8718 29.466 19.9196 29.27 19.9684 29.0687C20.0274 28.8317 20.0864 28.5867 20.2308 28.2393C20.5643 27.4989 21.3431 26.9359 22.1116 26.4228C22.628 26.0842 23.129 25.8054 23.4581 25.6317C23.5051 25.6068 23.5393 25.563 23.553 25.5105C23.5667 25.458 23.5581 25.4018 23.5299 25.3564C23.2084 24.8317 23.0375 24.2241 23.0349 23.5978C23.0375 22.6686 23.3923 21.8142 24.0352 21.163C32.9134 12.1428 44.5812 7.19212 56.9279 7.19212C69.3241 7.19212 80.9765 12.1312 89.7855 21.0979L89.9043 21.2039C90.5113 21.8151 90.8635 22.6837 90.8635 23.5781C90.8635 24.4708 90.5259 25.3135 89.9376 25.9167C89.8975 25.9586 89.8778 26.0165 89.8829 26.0753C89.8889 26.1332 89.9206 26.1858 89.9684 26.217C90.566 26.6081 91.2328 27.0196 91.9766 27.4695C95.3817 29.4856 95.7314 32.6073 95.7236 33.8555C95.7236 34.5744 95.6424 35.0893 95.5928 35.337C95.5843 35.3798 95.5902 35.4242 95.6099 35.4635C95.6612 35.5891 95.7322 35.7085 95.8271 35.8617C95.9006 35.9811 95.9886 36.1253 96.0776 36.284C96.1041 36.3526 96.5307 37.0011 96.8222 37.4332C97.2248 38.0434 97.7343 38.7962 98.2122 39.4947C98.3995 39.7629 98.5815 40.0132 98.7525 40.2466C98.8825 40.4248 99.0056 40.5923 99.1176 40.7508L99.1894 40.8578C99.404 41.174 99.5724 41.4244 99.6228 41.7745C99.6382 41.9446 99.6425 42.1709 99.6493 42.4239C99.6596 42.832 99.6715 43.2952 99.7254 43.7638C99.7972 44.5014 100.004 45.1446 100.167 45.4279C101.088 46.612 104.102 51.347 106.392 55.8878C106.838 56.7823 107.254 57.7489 107.264 58.7458C107.264 59.4781 106.999 60.1659 106.519 60.6986C106.002 61.2741 105.167 61.9877 104.284 62.7432C103.056 63.7935 101.664 64.9838 100.607 66.223C100.121 66.8021 99.4389 67.1326 98.7328 67.1326C98.6097 67.1326 98.5396 67.1326 98.466 67.1227C98.3464 67.1165 98.2378 67.1014 98.1258 67.0738C98.1113 67.0702 98.0976 67.0684 98.083 67.0684C98.0471 67.0684 98.0121 67.0791 97.9813 67.1005C97.0084 67.7687 95.7141 68.1776 94.1343 68.3175C94.0907 68.3165 94.0522 68.2845 94.0428 68.2435C94.0359 68.2096 94.0582 68.1624 94.0958 68.1464C94.189 68.1028 94.2412 68.0671 94.3155 68.0146C94.5249 67.8524 94.7309 67.6466 94.9353 67.3954C95.296 66.9286 95.6397 66.337 95.9569 65.6323C95.9979 65.5424 95.9663 65.4354 95.8842 65.3855C95.8303 65.3517 95.7807 65.3125 95.7312 65.2742C95.5755 65.1584 95.4567 65.0711 95.3422 64.9784C94.4608 64.7646 93.6734 64.6764 92.9271 64.6764C91.8242 64.6764 90.7984 64.8715 89.8785 65.2555C89.8143 65.2822 89.7708 65.3419 89.7631 65.4123C89.758 65.464 89.2638 70.4957 92.8476 73.2192C92.8792 73.2432 92.9177 73.2557 92.9562 73.2557C92.9698 73.2557 92.9827 73.2539 92.9963 73.2512C93.0485 73.2387 93.0921 73.2048 93.1177 73.1559C93.3152 72.7853 93.5007 72.3639 93.6691 71.9033C94.0222 70.9438 94.1898 70.1242 94.1898 70.0761C94.1907 70.0779 94.1915 70.0788 94.1924 70.0788C94.1984 70.0788 94.2189 70.0557 94.2462 70.0539L94.3428 70.0975C94.7882 71.0374 95.0131 71.9738 95.0131 72.8789C95.0131 73.6735 94.8353 74.2758 94.6865 74.6402C94.6617 74.6981 94.6668 74.764 94.6976 74.8174C94.7002 74.821 94.7429 74.8985 94.7446 74.9021C94.8088 75.0108 94.8891 75.1604 94.9669 75.3413C95.1362 75.711 95.3115 76.1502 95.3456 76.6339C95.3516 76.6749 95.3507 76.7087 95.3507 76.7435C95.3285 77.6887 94.7164 78.3373 94.3112 78.7658C94.1889 78.8968 94.0864 79.0054 94.0265 79.0927C93.6957 79.491 93.1229 80.765 92.9544 81.1462C92.786 81.5186 92.6219 81.8964 92.4705 82.2429C92.2722 82.6982 92.0969 83.1008 91.9619 83.3761C91.8782 83.5365 91.8371 83.6176 91.7653 83.7093C91.5943 83.9312 91.2053 84.3339 90.5009 84.5566C90.4453 84.5753 90.4008 84.619 90.3803 84.675C90.3606 84.733 90.3683 84.7962 90.4 84.8461C90.73 85.3726 90.9095 86.0007 90.9197 86.6635C90.9197 87.3718 90.6265 87.9651 90.406 88.3526C90.1495 88.7999 89.9093 89.0814 89.9067 89.0841C82.3706 96.7501 72.5016 101.599 62.0956 102.759C62.0263 102.767 61.9674 102.813 61.9426 102.882C61.1578 105.026 59.1517 106.468 56.9503 106.468Z" fill="#EBB700"/>
<path d="M102.852 52.9481C102.852 52.9481 102.67 53.717 100.647 52.3263C100.647 52.3263 101.87 53.9709 102.769 54.2302C103.666 54.4895 103.173 53.2297 102.852 52.9481ZM100.979 49.8185C100.979 49.8185 100.952 50.7531 99.2244 50.1045C99.2244 50.1045 100.07 51.456 101.233 51.7161C102.488 51.9967 101.663 50.5856 100.979 49.8185ZM100.257 48.6826C98.95 46.8385 98.2968 46.1783 97.7924 42.7511C97.347 39.6642 90.948 42.7511 90.948 42.7511C87.8045 43.568 86.5897 42.7128 86.1339 42.0865C86.1339 42.0687 85.998 41.9725 86.0715 42.1516C87.8104 46.1419 91.6079 44.0812 91.6079 44.0812L92.3021 44.8055C92.1431 44.3842 92.1063 43.7516 92.2209 42.8705C92.3653 42.8153 92.6193 42.7075 92.9056 42.6265C93.0766 42.8652 93.0963 43.0211 93.1177 43.3891C93.133 43.7517 92.9304 44.2381 92.9304 44.5463C92.9304 44.8376 93.1381 44.9677 93.1381 44.9677C93.8648 44.5187 94.4094 43.4318 94.6693 42.7512C94.8565 42.8047 95.0368 42.8653 95.213 42.9241C94.8659 44.8225 93.6469 45.6449 92.9518 45.4391C92.915 45.4275 92.8842 45.4168 92.8526 45.4061C90.6324 46.46 91.9507 46.7576 91.9507 46.7576C93.7973 46.7576 95.4635 45.4551 95.4635 45.4551C96.0799 45.774 96.7185 47.3197 96.7185 47.3197C97.4093 47.3963 98.5651 48.0395 98.5651 48.0395C99.7175 49.1638 100.257 48.6826 100.257 48.6826ZM22.049 57.1978C21.9977 56.9074 17.7121 58.0959 14.2137 61.0679C14.2137 61.0679 13.4272 61.6951 13.4768 61.9837C13.5811 62.5395 14.2094 62.1823 14.3702 62.0148C17.0991 59.2157 22.1003 57.4909 22.049 57.1978ZM72.1817 84.9409L73.411 87.6831L75.0243 90.6497L75.014 90.6827L70.6711 85.6706L69.7332 86.1294L73.1777 93.8257L74.154 93.3482L72.887 90.5214L71.585 88.0127L71.3046 87.5361L71.3148 87.5102L75.6937 92.6034L76.6025 92.1589L73.1623 84.4589L72.1817 84.9409ZM12.0818 50.802C11.6936 51.4836 11.3551 52.0617 11.0157 52.7219L11.0183 52.7166C10.6601 53.4301 10.089 54.5705 9.84532 55.0952C10.4899 55.22 11.202 55.0899 11.9569 54.5215C12.0399 52.3058 14.0805 47.6929 14.0805 47.6929C13.4983 48.4501 12.6263 49.8889 12.0818 50.802ZM15.6151 63.2058C15.6151 63.2058 14.9816 63.7449 15.0184 63.9872C15.0911 64.4584 15.5972 64.152 15.7296 64.0095C17.9344 61.6094 21.9397 60.0913 21.8978 59.8464C21.8628 59.5978 18.432 60.6517 15.6151 63.2058ZM43.0534 26.4328L46.0413 25.0867L41.5693 14.2669L38.5754 15.613L38.6369 15.7538L43.0534 26.4328ZM65.7735 17.9213L68.3886 25.7619L71.3671 26.8105L74.9945 15.6513L71.9066 14.5644L69.8932 20.756L67.2781 12.9322L64.2945 11.8766L60.6739 23.0429L63.761 24.1298L65.7735 17.9213ZM52.7917 23.8323H52.8019C53.0225 23.8323 53.2482 23.8207 53.4764 23.7994C56.8234 23.4805 59.1222 20.896 59.1171 17.4794C59.1171 17.2514 59.106 17.0144 59.0855 16.7756C58.7897 13.4615 55.965 11.3368 52.9788 11.3368C52.7753 11.3368 52.5744 11.3466 52.3659 11.3697C49.331 11.661 46.7004 14.1484 46.7004 17.4251C46.7004 17.6032 46.7055 17.7867 46.7209 17.9765C47.0329 21.4848 49.543 23.8323 52.7917 23.8323ZM52.6574 14.6134C52.7505 14.6028 52.8386 14.5974 52.9266 14.5974H52.9309C54.3946 14.5974 55.6564 15.76 55.7727 17.1115H55.7701C55.7803 17.2246 55.7855 17.3386 55.7855 17.4518C55.7855 19.1338 54.6595 20.414 53.1865 20.5557C53.0984 20.5663 53.0095 20.5717 52.9214 20.5717C51.4604 20.5663 50.1943 19.4037 50.037 17.6674C50.0319 17.5926 50.0285 17.5222 50.0285 17.4517C50.0268 16.0887 51.157 14.7533 52.6574 14.6134ZM73.4214 26.8435C73.9198 28.2448 74.7662 29.4778 75.9588 30.3366C76.7898 30.9371 77.796 31.3487 78.839 31.3487C78.9629 31.3487 79.0929 31.3415 79.2228 31.3255C80.4471 31.2017 81.3395 30.342 81.9731 29.3896C82.3715 28.7847 82.5484 28.1959 82.5484 27.6221C82.5484 26.6706 82.0765 25.8002 81.4481 24.9833L80.9821 24.373C80.8052 24.1406 80.6385 23.908 80.5359 23.6532C80.4777 23.5133 80.4581 23.394 80.4581 23.2969C80.4581 22.9619 80.7 22.7775 81.0796 22.7668C81.2924 22.7668 81.5369 22.8426 81.7592 23.0047C82.32 23.411 82.6465 24.0052 82.8287 24.6912L82.88 24.881L85.4695 23.4324L85.4062 23.3023C84.8942 22.1879 83.9956 21.0742 83.0202 20.366C82.2628 19.8199 81.4378 19.5446 80.6384 19.5446C79.4603 19.5446 78.3395 20.1451 77.5624 21.329C77.0999 22.0204 76.8973 22.6323 76.8973 23.2052C76.8973 24.2057 77.4992 25.0324 78.2421 25.9732C78.5421 26.3465 79.0457 26.9799 79.0354 27.4441C79.0354 27.5688 79.0047 27.6757 78.9362 27.7853C78.7601 28.0489 78.537 28.1407 78.2779 28.1461C78.0231 28.1461 77.7325 28.0338 77.4837 27.8557C76.7118 27.298 76.3535 26.3946 76.1253 25.4494L76.0834 25.2596L73.3802 26.7144L73.4214 26.8435ZM35.819 31.8013L40.9614 27.4172L39.1712 25.1348L36.5518 27.3736L31.1752 20.5334L28.6541 22.6857L28.7524 22.8051L35.819 31.8013ZM102.042 54.6302C103.987 56.8244 104.014 55.4195 104.014 55.4195C103.556 55.7545 102.042 54.6302 102.042 54.6302ZM107.449 58.7434C107.438 57.7554 107.06 56.8093 106.556 55.7982C104.262 51.2502 101.217 46.4706 100.325 45.3303C100.174 45.0657 99.9774 44.4385 99.909 43.7409C99.821 42.9828 99.8475 42.2157 99.8064 41.7462C99.7432 41.307 99.52 41.0157 99.2662 40.6371C99.0071 40.2691 98.6908 39.8531 98.3626 39.3827C97.8855 38.6852 97.3777 37.9333 96.9733 37.3221C96.5724 36.7279 96.2569 36.2353 96.2364 36.1871C96.044 35.8415 95.8517 35.5653 95.8047 35.446C95.7952 35.4201 95.785 35.3978 95.7747 35.3756C95.8363 35.0628 95.909 34.5425 95.909 33.9002V33.8566C95.9192 32.0561 95.2293 29.1741 92.0696 27.3033C91.3275 26.8542 90.6632 26.4445 90.0665 26.0542C90.6794 25.427 91.0479 24.5353 91.0479 23.6052V23.5785C91.0479 22.5994 90.658 21.696 90.0246 21.0582L89.9161 20.9611C81.4482 12.3418 69.8001 7 56.9739 7H56.9277C44.0955 7 32.4525 12.3418 23.9435 20.9932L23.9068 21.0253C23.2502 21.6908 22.8527 22.5888 22.851 23.5669V23.599C22.8527 24.2646 23.0399 24.914 23.3751 25.4601C22.9989 25.6597 22.5014 25.9403 22.0123 26.2601C21.2181 26.7902 20.4196 27.3684 20.0614 28.163C19.7921 28.8125 19.8075 29.11 19.6075 29.6384C19.4229 30.1364 19.0868 30.8232 18.7645 31.4344C18.4431 32.0518 18.1516 32.5703 18.0276 32.8616C17.8617 33.2572 17.8361 33.6838 17.8301 34.1106C17.8301 34.5872 17.8831 35.0576 17.9242 35.3596C16.9231 36.1115 14.7747 38.1927 14.7636 41.9727C14.7636 42.3629 14.7901 42.762 14.8363 43.1834C13.7009 44.6703 8.79203 51.1105 7.25149 55.1926C7.15831 55.4838 6.45218 56.2474 6.44958 57.5775V57.6042C6.43162 58.4462 6.69325 59.3602 7.60882 60.2484L7.92087 60.5343L7.9833 60.5824C8.01664 60.6047 8.1329 60.7178 8.52528 60.9664C9.63752 61.6746 11.9834 63.4368 13.1042 66.097C13.1119 66.1309 13.1273 66.1728 13.1503 66.2289C13.1973 66.3153 13.223 66.4213 13.3889 66.5746C13.5137 66.6708 13.5504 66.6663 13.5915 66.6806C13.7206 66.7188 13.8249 66.7313 13.9753 66.751C14.4071 66.8053 15.0551 66.8552 15.0602 66.8552H15.1526C15.2312 66.8427 15.3039 66.8231 15.3715 66.7946C15.4133 66.8427 15.4493 66.8863 15.4963 66.9345C16.093 67.5509 17.1616 68.1576 18.9723 68.2022H18.9775C19.1125 68.2022 19.2263 68.0917 19.2425 67.9528C19.2579 67.8067 19.1647 67.6757 19.0288 67.6428C18.9458 67.6169 18.2978 67.2873 17.5609 65.33C18.6868 64.6921 20.3214 63.9135 22.2047 63.4262C22.722 63.6854 23.1956 63.9874 23.4495 64.3082C23.4495 64.3082 22.4698 66.9096 23.0716 69.7417C23.0716 69.7417 21.8859 70.6237 21.4054 71.9155C21.3276 71.9582 21.2498 72.0019 21.1771 72.0447C21.0788 71.8237 20.9908 71.6019 20.913 71.3845C20.5086 70.2949 20.3317 69.3791 20.3282 69.3791C20.3052 69.2597 20.212 69.1733 20.1025 69.1591C19.9897 69.1421 19.8777 69.2063 19.829 69.3096C19.2374 70.5587 19.0399 71.6634 19.0399 72.5587C19.0399 72.7315 19.0501 72.8901 19.0604 73.0398C18.9749 73.0077 18.874 72.9801 18.7646 72.9801C18.7201 72.9801 18.6637 72.9855 18.5988 73.0015C18.2978 73.0576 18.1166 73.283 18.0337 73.4344C17.9499 73.5903 17.9294 73.7097 17.9191 73.7444V73.7596C17.9191 73.7649 17.696 74.9605 17.696 76.3342C17.7123 77.5556 17.8157 79.0274 18.7535 80.059C20.1146 81.4693 22.5263 84.0653 22.5314 84.0707L22.5579 84.0965C22.5964 84.1304 22.9307 84.4537 23.4975 84.6756C23.123 85.2386 22.911 85.9246 22.911 86.6346V86.665C22.911 87.6378 23.3 88.5438 23.9318 89.18L24.0412 89.2824C31.3473 96.7168 41.024 101.708 51.7804 102.941C52.5687 105.114 54.5871 106.66 56.951 106.66C59.3088 106.66 61.3221 105.12 62.1163 102.951C72.924 101.746 82.6469 96.7382 90.0146 89.2441L90.0411 89.2183C90.0564 89.2013 90.3052 88.9038 90.5651 88.4512C90.8242 87.9951 91.1054 87.3902 91.1106 86.698C91.1106 86.6757 91.1055 86.665 91.1055 86.6597C91.0943 85.9728 90.9072 85.3029 90.5549 84.7416C91.208 84.535 91.6492 84.1678 91.9091 83.832C92.0023 83.7126 92.0493 83.612 92.1271 83.464C92.3656 82.9776 92.7289 82.0966 93.123 81.2261C93.5027 80.3664 93.9318 79.5014 94.1771 79.2056C94.4362 78.8314 95.5048 78.0572 95.5365 76.7432C95.5365 76.6969 95.5365 76.6514 95.5305 76.6203C95.4937 76.1 95.3074 75.6358 95.1355 75.2625C95.0543 75.0728 94.9696 74.9169 94.9029 74.8028C94.8867 74.7707 94.8722 74.7431 94.8568 74.7164C95.0115 74.3378 95.1987 73.7097 95.1987 72.8794C95.1987 72.082 95.0278 71.1092 94.5088 70.0125C94.4558 69.9038 94.3481 69.846 94.2335 69.862C94.1189 69.8709 94.0309 69.9626 94.0052 70.0767C94.0052 70.082 93.8496 70.8767 93.4966 71.8344C93.3512 72.2344 93.17 72.6611 92.9571 73.0629C89.4178 70.376 89.947 65.4342 89.947 65.4342C91.7637 64.6752 93.6932 64.7946 95.2295 65.1296C95.3492 65.2267 95.4731 65.3193 95.5979 65.4111C95.6604 65.4592 95.7219 65.5082 95.7903 65.551C95.427 66.3572 95.0791 66.9042 94.7943 67.2712C94.5499 67.5733 94.3481 67.7515 94.2121 67.8557C94.1455 67.9038 94.0976 67.9358 94.0676 67.9528C94.0463 67.9626 94.036 67.9679 94.0309 67.9679C93.9069 68.0178 93.8385 68.1577 93.865 68.2949C93.8959 68.417 94.0052 68.5087 94.1292 68.5087H94.1506C95.992 68.3457 97.2428 67.8379 98.0832 67.2615C98.2089 67.2918 98.3277 67.3078 98.4414 67.314C98.5251 67.3247 98.6021 67.3247 98.6859 67.3247H98.7158C99.4433 67.33 100.19 67.0129 100.745 66.351C102.571 64.2102 105.42 62.2048 106.655 60.831C107.185 60.243 107.449 59.5063 107.449 58.7606L107.449 58.7434ZM25.1781 22.4585L25.2499 22.3881C33.4271 14.0726 44.6042 8.95177 56.9277 8.95177H56.9739C69.2974 8.95177 80.4728 14.0726 88.65 22.3881L88.7287 22.4585C89.0031 22.7454 89.1792 23.14 89.1792 23.5783C89.1792 24.0104 89.0184 24.3935 88.7329 24.691L87.8874 25.5614C87.7173 25.7405 87.6344 25.9846 87.6344 26.2492C87.6344 26.325 87.6378 26.3944 87.6541 26.4657L87.6489 26.4594C87.7524 26.8933 87.8046 27.3458 87.8046 27.8109C87.8046 30.9806 85.3407 33.5428 82.3049 33.5428C81.9005 33.5428 81.5056 33.4992 81.1268 33.4128H81.1115L81.0747 33.4021C81.002 33.3798 80.9293 33.37 80.8516 33.37C80.5926 33.37 80.3591 33.4831 80.1934 33.6613L80.1831 33.6666L79.4308 34.4613C79.1555 34.7651 78.776 34.9601 78.3451 34.9601C77.915 34.9601 77.5363 34.7703 77.2559 34.4559C74.3253 31.4073 70.7646 29.0117 66.8012 27.4981C63.7295 26.3079 60.4142 25.6593 56.9535 25.6593C53.4928 25.6593 50.1826 26.3079 47.1212 27.4928C43.1458 29.001 39.5766 31.402 36.6442 34.4559C36.3647 34.7704 35.9859 34.9601 35.5551 34.9601C35.1243 34.9601 34.7464 34.765 34.4711 34.4613L33.7188 33.6666L33.7025 33.6514C33.5366 33.4724 33.3092 33.3699 33.0494 33.3699C32.9708 33.3699 32.8989 33.3797 32.8254 33.402L32.7843 33.4127H32.7741C32.3962 33.4991 32.0012 33.5427 31.5969 33.5427C28.5551 33.5427 26.0938 30.9806 26.0938 27.8108C26.0938 27.3458 26.1485 26.8932 26.2494 26.4594L26.2477 26.4656C26.2623 26.3944 26.2674 26.3249 26.2674 26.2491C26.2674 25.9845 26.1947 25.7565 26.0135 25.5613L25.1671 24.691C24.8825 24.3934 24.7208 24.0104 24.7208 23.5783C24.7208 23.14 24.8977 22.7454 25.1781 22.4585ZM82.1905 37.0298C82.1905 37.0298 82.2538 39.5501 83.955 40.5452C83.3215 40.5283 81.0646 40.9016 82.1905 37.0298ZM83.1352 55.1432C83.1352 62.681 80.208 69.4927 75.4658 74.4354C70.7244 79.378 64.1852 82.4257 56.9536 82.4257C49.7151 82.4257 43.1776 79.378 38.4354 74.4354C33.6923 69.4927 30.7668 62.681 30.7668 55.1432C30.7668 47.601 33.6923 40.7884 38.4354 35.8467C43.1776 30.904 49.7151 27.8554 56.9536 27.8554C64.1852 27.8554 70.7244 30.904 75.4658 35.8467C80.208 40.7884 83.1352 47.601 83.1352 55.1432ZM18.1313 67.5675C16.9583 67.4 16.2787 66.9564 15.8692 66.5403C15.8333 66.4967 15.8393 66.4967 15.8025 66.4539L15.9521 66.3452C15.9521 66.3399 16.2223 66.1421 16.7309 65.8213C16.8404 65.7509 16.9617 65.6743 17.0943 65.5995C17.4627 66.5741 17.8252 67.1897 18.1313 67.5675ZM20.0002 70.2883C20.2592 71.2549 20.8038 72.8995 21.7279 74.0843C21.4988 74.2135 21.0278 74.4354 20.514 74.43C20.3054 74.43 20.0934 74.3908 19.8753 74.3106C19.7352 73.9276 19.5744 73.3316 19.5744 72.5583C19.5744 71.9213 19.6839 71.1587 20.0002 70.2883ZM23.5275 76.1209C23.5275 76.1209 23.3753 76.4362 23.4497 76.9859C23.4497 76.9859 22.0904 76.7543 21.7903 76.202C21.7903 76.202 21.863 77.5383 22.0904 78.5646C22.0904 78.5646 20.2772 76.5174 20.0515 75.8893C20.0515 75.8893 20.2028 78.4845 20.9568 79.9018C20.9568 79.9018 19.1845 78.5548 19.3256 74.8639C19.5282 74.9752 19.73 75.0519 19.93 75.1044H19.9326C20.0267 75.1285 20.1164 75.1427 20.2079 75.1534C20.2224 75.1534 20.2387 75.1588 20.2541 75.1588C20.3421 75.1704 20.4311 75.1757 20.514 75.1757C21.2817 75.1704 21.8938 74.8452 22.1486 74.6964C22.2982 74.7106 22.4384 74.7213 22.5726 74.7213C23.3574 74.7267 23.8857 74.3756 24.1773 74.0238C24.285 73.883 24.368 73.7494 24.4261 73.6345C24.7116 73.6879 24.9835 73.7093 25.2408 73.7093C26.3873 73.7155 27.2063 73.213 27.7149 72.7204C28.0526 72.3961 28.2604 72.0718 28.3697 71.8829C30.3924 71.3841 30.8883 69.6548 30.896 69.6059L30.9114 69.5461V69.482C30.6028 64.7282 28.5818 62.6702 28.5356 62.6257L28.4621 62.55L28.3646 62.5277C27.4559 62.3192 26.5531 62.2257 25.6708 62.2257C25.4639 62.2257 25.2561 62.231 25.0476 62.2435C24.9997 62.2435 24.9501 62.2488 24.898 62.2488C24.6945 62.2631 24.4928 62.2737 24.297 62.296H24.2919C24.0884 62.3192 23.8909 62.3441 23.6934 62.3718C23.6421 62.3824 23.5926 62.3878 23.5438 62.3931C23.3524 62.4251 23.16 62.4582 22.9728 62.4973H22.9625C22.7702 62.5338 22.5778 62.5784 22.3923 62.6203C22.3453 62.6309 22.2982 62.6416 22.2495 62.6532C22.0657 62.7014 21.8836 62.745 21.7075 62.7931C21.7024 62.7931 21.7024 62.7984 21.6964 62.7984C21.5152 62.8483 21.3382 62.9009 21.1621 62.9553C21.1159 62.9713 21.074 62.982 21.0278 62.9989C20.8559 63.0524 20.6902 63.1085 20.5243 63.1664C20.5192 63.1664 20.5158 63.1717 20.5141 63.1717C20.3423 63.2305 20.1764 63.2911 20.0148 63.357C19.9737 63.3731 19.9327 63.3882 19.8908 63.4034C19.7352 63.463 19.5796 63.5299 19.4283 63.5932H19.4214C19.2675 63.6582 19.1179 63.7232 18.9675 63.7945C18.9307 63.8096 18.8948 63.8256 18.8581 63.8417C18.7187 63.9076 18.5785 63.9726 18.4434 64.0314C18.4434 64.0368 18.4383 64.0368 18.4357 64.0368C18.298 64.1063 18.163 64.1713 18.0339 64.2381C18.0023 64.2533 17.9715 64.2684 17.9364 64.2853C17.8158 64.3494 17.7013 64.4109 17.5867 64.4688C17.5816 64.4742 17.5765 64.4813 17.5662 64.4813C17.4517 64.5446 17.3414 64.6042 17.2337 64.6701C17.2038 64.6853 17.1721 64.7022 17.1405 64.7173C17.0473 64.7716 16.9533 64.8278 16.8712 64.8741C16.8601 64.8795 16.8507 64.8857 16.8404 64.8911C16.254 65.2376 15.8445 65.5254 15.6521 65.6537L14.1731 65.4639C14.0953 65.2911 14.0124 65.1289 13.9294 64.9615C13.9132 64.9294 13.8978 64.9009 13.8798 64.8697C13.7986 64.7129 13.7106 64.5552 13.6225 64.4109C13.608 64.3825 13.5917 64.3548 13.5763 64.329C13.4883 64.1829 13.3976 64.0368 13.3062 63.8978C13.2984 63.8925 13.2933 63.8809 13.2865 63.8694C13.1899 63.7233 13.089 63.5825 12.9864 63.4435C12.9684 63.4204 12.9531 63.3928 12.9334 63.3731C12.8342 63.2306 12.7308 63.1032 12.6265 62.9714C12.6119 62.9553 12.6008 62.941 12.5905 62.9295C12.4862 62.7985 12.3777 62.6756 12.2734 62.55C12.2656 62.5447 12.2588 62.5393 12.2537 62.5277C12.1443 62.4056 12.0297 62.2854 11.9212 62.1669L11.8742 62.1161C11.7647 62.0039 11.6519 61.8863 11.5373 61.7758L12.1127 61.5558C12.871 58.9561 15.4383 58.8787 15.4383 58.8787C15.1382 56.9071 15.8957 55.3329 15.8957 55.3329L14.5364 56.5926C11.1766 56.8848 9.2599 58.0573 8.19548 59.0952C7.95693 58.7646 7.81676 58.4511 7.74155 58.1544C7.73301 58.1339 7.72871 58.1062 7.72358 58.0849C7.71504 58.0475 7.70821 58.0038 7.70309 57.9655C7.69708 57.9281 7.69196 57.8951 7.68772 57.8577C7.68171 57.831 7.67918 57.8034 7.67659 57.7713C7.67146 57.7072 7.66716 57.6413 7.66716 57.5771C7.66716 57.08 7.82619 56.6363 7.98863 56.3112C8.07156 56.1543 8.14936 56.0243 8.21091 55.9379C8.26823 55.8514 8.30498 55.8194 8.29897 55.8194L8.34685 55.766L8.36735 55.7C9.1342 53.6082 11.0518 50.5747 12.771 48.099C14.4954 45.617 16.0154 43.6811 16.0205 43.6757L16.118 43.551L16.0949 43.3835C16.0205 42.8811 15.9837 42.4107 15.9837 41.9723C15.9837 39.885 16.7463 38.4364 17.5089 37.4894C17.8885 37.0199 18.2698 36.6733 18.5528 36.4515C18.6973 36.3384 18.8118 36.2573 18.8947 36.203C18.9726 36.154 19.0084 36.1335 19.0084 36.1335L19.2144 36.0194L19.052 33.7646C20.2386 31.6069 21.1773 28.985 21.3953 28.3516C21.6031 28.2447 21.7971 28.1306 21.9869 28.0166C22.0493 27.9845 22.1066 27.9471 22.1681 27.9142C22.2929 27.8384 22.4186 27.7627 22.5366 27.6879C22.6042 27.6433 22.664 27.6068 22.729 27.5632C22.8375 27.4928 22.941 27.4224 23.0453 27.3511C23.1017 27.3146 23.1599 27.2763 23.2163 27.2335C23.3206 27.1622 23.4198 27.0972 23.513 27.0277C23.5592 26.9947 23.6105 26.9573 23.6583 26.9243C23.7566 26.8486 23.8498 26.7845 23.9439 26.7141C23.9764 26.6864 24.0131 26.6597 24.0465 26.6375C24.2782 26.4593 24.4825 26.3025 24.6535 26.168L24.8638 26.389C24.7741 26.854 24.7296 27.3306 24.7296 27.8108C24.7296 27.8171 24.7313 27.8224 24.7313 27.8278C23.9439 28.2492 23.0924 28.6447 22.1683 28.9957L20.7311 31.9472C20.7311 31.9472 22.5427 31.7904 23.0719 34.4675C23.0719 34.4675 24.1875 32.8345 25.9512 31.8884C26.029 32.0015 26.1119 32.1155 26.1949 32.2296C25.4195 32.8024 24.6235 33.6559 24.2798 34.8622L24.9595 35.1757C24.9595 35.1757 26.1589 34.1806 27.5541 33.5971C27.814 33.7976 28.0944 33.9758 28.3817 34.1379C27.5225 34.6306 26.5838 35.2569 26.2479 35.803L26.6984 36.2788C26.6984 36.2788 28.7399 35.0948 29.116 37.3817C29.4948 39.6641 27.1549 40.0579 26.4752 40.0579C26.4752 40.0579 26.5479 40.9239 27.3805 41.789C27.3805 41.789 25.5673 43.2866 22.9991 41.789C20.4276 40.2914 19.5479 40.4695 17.3559 41.0201C17.3559 41.0201 16.554 42.205 17.0319 43.6109C16.5386 44.1142 16.2736 44.059 15.7367 45.5949C15.5162 46.59 14.5338 47.3045 14.5338 47.3045C14.5338 47.3045 17.1772 47.5361 19.3718 45.0158C19.3718 45.0158 21.0329 46.9089 23.5275 43.6813C23.5275 43.6813 25.4886 45.4925 28.6646 43.4435C28.6646 43.4435 27.1549 45.1735 24.5089 45.0978C24.5089 45.0978 25.7956 46.3575 26.2478 47.6172C26.2478 47.6172 25.2664 46.6711 22.9213 46.4341C22.9213 46.4341 23.2222 48.2443 24.2798 49.3481C24.2798 49.3481 22.9213 48.1686 20.4276 48.6381C20.4276 48.6381 22.6195 51.9478 25.946 52.2623C25.946 52.2623 24.6594 52.738 24.0567 53.4462C24.0567 53.4462 25.339 54.3113 27.3053 53.6031C27.3053 53.6031 25.2664 54.7808 24.3585 55.1764C24.3585 55.1764 25.7178 55.6468 28.6646 54.7051C28.6595 54.8521 28.6595 54.9981 28.6595 55.1434C28.6595 55.2681 28.6595 55.3866 28.6646 55.5113C28.6236 56.0681 28.4988 56.8245 28.1354 57.539C28.1354 57.539 26.7761 56.2793 25.4168 55.9657C25.4168 55.9657 27.0043 58.2455 26.0964 60.8477C26.0964 60.8477 26.6624 61.7609 28.8937 61.6585C29.0698 61.6522 29.2203 61.6522 29.3545 61.6522C30.0188 64.7338 31.1498 67.6327 32.6596 70.2662C32.1671 70.4443 31.7261 70.5691 31.461 70.6118L32.8203 71.3967C32.8203 71.3967 30.6309 72.187 29.6461 72.3429C29.6461 72.3429 30.1744 72.8952 30.6309 73.2071C30.6309 73.2071 27.9849 74.4677 26.9274 74.391C26.9274 74.391 27.531 75.0191 27.8345 75.0992C27.8345 75.0992 26.0964 75.5705 25.5672 75.2569L25.4167 76.5175C25.4167 76.5175 23.9019 76.6732 23.5275 76.1209ZM25.8151 64.545C26.0468 64.2911 26.6307 64.2537 26.8743 64.4532C27.4557 64.9245 27.0248 65.353 26.5632 66.2484C25.822 67.7085 26.8128 68.7081 26.0904 70.1683C25.3697 71.6276 24.4678 72.0391 24.1429 71.7799C23.6582 71.3969 24.3729 70.5897 24.6131 69.9482C25.1261 68.5647 23.9762 66.5744 25.8151 64.545ZM21.3858 42.7184C21.3858 42.7184 21.4243 42.7032 21.4705 42.6863C21.621 42.7406 21.7534 42.795 21.8415 42.8271C22.0441 44.4271 21.7585 45.2004 21.1054 45.3946C20.4095 45.6004 19.1896 44.779 18.8484 42.8814C19.004 42.8216 19.1699 42.7736 19.34 42.7184C19.564 43.4542 20.065 44.6222 20.7523 45.0284C20.7523 45.0284 20.8951 44.9465 20.8823 44.762C20.8438 44.2061 20.6926 43.0159 21.3858 42.7184ZM88.9775 87.5735C88.9202 87.6493 88.7902 87.8123 88.7432 87.8764C81.2876 95.922 71.1124 100.361 60.6526 101.194C60.5021 103.194 58.9034 104.768 56.9534 104.778C54.9965 104.768 53.3987 103.194 53.2482 101.194C42.7884 100.361 32.6133 95.9219 25.1602 87.8764C25.1158 87.8123 24.9858 87.6493 24.9234 87.5735C24.7259 87.3089 24.6746 87.038 24.6746 86.6808C24.6746 86.1347 25.0644 85.6982 25.3491 85.39C25.6346 85.0772 26.0074 84.6968 26.0074 84.6968C26.0074 84.6968 26.1587 84.508 26.2109 84.3289C26.2622 84.1462 26.2314 83.9725 26.216 83.9021C26.1015 83.454 26.0365 82.9773 26.0339 82.4927C26.0288 79.3621 28.4619 76.824 31.4609 76.8187C31.9285 76.8133 32.379 76.8784 32.8108 76.9915C32.8886 77.0138 32.9818 77.0369 33.2152 76.9915C33.4998 76.9452 33.5734 76.7982 33.6461 76.7216C33.7188 76.6458 34.1069 76.1915 34.4548 75.8618C34.8079 75.5322 35.1396 75.2623 35.6278 75.2623C36.1724 75.2623 36.5613 75.5803 36.9195 76.0034C39.468 78.7616 42.5243 80.848 45.8379 82.2637C49.2525 83.7791 53.0072 84.621 56.9535 84.621C60.8861 84.621 64.6323 83.7844 68.0408 82.2691C71.3613 80.8588 74.4278 78.7661 76.9806 76.0034C77.3388 75.5802 77.7278 75.2623 78.2733 75.2623C78.7605 75.2623 79.0256 75.4787 79.4462 75.8618C79.8668 76.2529 80.1515 76.5986 80.2549 76.7216C80.3592 76.8463 80.4054 76.9327 80.6858 76.9915C80.8679 77.0316 81.0124 77.0138 81.0953 76.9915C81.521 76.8784 81.9733 76.8133 82.4393 76.8187C85.4435 76.824 87.8723 79.3621 87.8671 82.4927C87.8671 82.9773 87.8047 83.454 87.691 83.9021C87.6696 83.9725 87.638 84.1462 87.691 84.3289C87.7423 84.508 87.8928 84.6968 87.8928 84.6968C87.8928 84.6968 88.2972 85.1084 88.5528 85.39C88.8119 85.6652 89.2265 86.1347 89.2265 86.6808C89.2265 87.0381 89.1741 87.3089 88.9775 87.5735ZM94.332 70.9959C94.5816 71.7095 94.6645 72.3429 94.6645 72.8792C94.6645 73.5038 94.5449 73.9982 94.4311 74.3314C94.4149 74.3697 94.4046 74.4026 94.3893 74.4409L94.1456 74.5167C93.8805 74.6031 93.4291 74.6565 93.2163 74.6565C93.0086 74.6565 92.7649 74.6102 92.5725 74.5594C93.5172 73.5421 94.0678 71.9527 94.332 70.9959ZM93.1538 75.3978C93.4813 75.3978 93.7874 75.3693 94.0832 75.3185C94.1712 75.4886 94.3011 75.7702 94.4414 76.1541C94.6482 77.0673 94.2704 77.1439 94.0566 77.2348C91.8416 78.1675 91.7689 81.1796 90.4772 80.6202C88.9409 79.9556 90.7986 75.5386 90.7986 75.5386C90.7986 75.5386 87.7936 76.7021 87.1618 76.2023C86.5224 75.7061 87.6962 74.3163 87.6962 74.3163C87.6962 74.3163 85.0852 74.9979 84.5561 74.6139C84.0278 74.2246 84.946 72.8286 84.946 72.8286C84.946 72.8286 83.1609 73.7159 82.3667 73.2722C81.5682 72.8286 83.1139 71.2722 83.1139 71.2722C83.1139 71.2722 81.4118 72.0133 80.8825 71.5688C80.7586 71.4654 80.7269 71.2926 80.7483 71.0877C81.469 69.9251 82.1128 68.7037 82.6685 67.4342V67.4538C82.6471 67.5678 82.6266 67.688 82.6103 67.8066C82.5539 68.2066 82.5172 68.6164 82.5172 69.0057C82.5172 69.7415 82.6317 70.456 83.0677 70.9701C83.7004 71.7042 85.3187 72.759 87.2499 73.6935C89.1795 74.6254 91.38 75.3924 93.1538 75.3978ZM90.3267 73.2614C90.2686 73.3167 88.3391 72.7928 87.2551 70.7215C86.1753 68.6547 87.7988 68.3741 86.5386 67.4342C85.2725 66.4925 85.0502 65.2542 86.0872 64.8916C86.6267 64.7081 87.0789 64.7998 87.9809 65.3628C88.8794 65.9294 88.7024 66.8648 88.7905 69.5972C88.8794 72.3207 90.378 73.2071 90.3267 73.2614ZM95.033 67.8271C95.381 67.4342 95.805 66.8177 96.2367 65.8663C96.7813 66.2235 97.3524 66.5353 97.9388 66.6921C97.3104 67.1518 96.3923 67.5892 95.033 67.8271ZM106.224 58.9334L106.22 58.9387C106.214 58.9983 106.208 59.0571 106.198 59.1115L105.332 58.3819L104.87 58.8647C102.718 56.9387 100.947 57.4206 100.947 57.4206L98.7946 58.8647C101.71 59.0483 102.374 61.1944 102.426 62.9504C102.423 62.9539 102.419 62.9575 102.416 62.961C102.203 63.1446 101.99 63.3397 101.777 63.5356C101.758 63.5552 101.731 63.5731 101.71 63.5936C101.513 63.778 101.316 63.9624 101.124 64.1522C101.108 64.1673 101.088 64.1834 101.072 64.1994C100.875 64.3954 100.688 64.5842 100.502 64.7785C100.46 64.8213 100.419 64.8649 100.382 64.9077C100.195 65.1036 100.009 65.3023 99.8368 65.5081C99.4786 65.9135 99.1161 66.056 98.6912 66.0605C98.0577 66.064 97.2789 65.681 96.5266 65.1802C96.3556 65.0582 96.1795 64.9361 96.0128 64.8097C95.1006 64.1352 94.3483 63.4154 93.7712 63.1615C93.1498 62.9076 91.5767 62.4978 89.6779 62.4978C89.5591 62.4978 89.4334 62.4978 89.3155 62.5022C89.2581 62.5022 89.2009 62.5076 89.1385 62.5076C89.0769 62.5138 89.0137 62.5138 88.9512 62.5174C88.8743 62.5227 88.7905 62.5281 88.7136 62.5343C88.6708 62.5397 88.6298 62.5397 88.5828 62.545C88.4904 62.5504 88.3972 62.561 88.3032 62.5709C88.2776 62.5789 88.2459 62.5789 88.2152 62.5842C88.1109 62.5941 88.0074 62.6092 87.9031 62.6261C87.8878 62.6314 87.8672 62.6314 87.8518 62.6368C87.7373 62.6537 87.6176 62.676 87.5039 62.6956H87.4834C86.2378 62.9415 84.9716 63.4207 83.8517 64.2911C83.9808 63.8813 84.1005 63.4635 84.2082 63.0475C85.7709 62.2492 88.3237 61.4207 91.8468 61.8314C91.8468 61.8314 89.6625 61.1071 86.3617 61.3164L85.7966 60.6153C85.7966 60.6153 85.2623 60.8951 84.5878 61.4465C84.6554 61.1391 84.7177 60.8309 84.7699 60.5182C85.5992 59.9765 86.4875 59.7458 86.4875 59.7458L87.1047 57.6584C86.9175 57.6415 86.207 57.2789 85.2 56.7176C85.2214 56.3443 85.2308 55.971 85.2359 55.5978C86.632 56.2357 87.7938 56.7764 88.2563 57.0197C88.2563 57.0197 87.7938 55.4962 90.4098 55.1765C90.4098 55.1765 87.9964 54.7497 85.2265 54.1769C85.2214 53.9657 85.2111 53.7483 85.2 53.539C88.671 53.9808 92.1222 53.8294 94.2604 52.2089C94.2604 52.2089 92.4121 52.608 90.3321 52.4512C90.3321 52.4512 92.3343 51.808 93.9483 49.8008C93.9483 49.8008 92.1068 50.7647 89.3352 50.5269C89.3352 50.5269 92.1069 49.0828 92.9472 47.8008C92.9472 47.8008 89.6421 49.1638 87.333 49.1638C87.333 49.1638 89.4916 48.2828 90.4098 47.3197L87.5869 47.5638L88.3495 46.3629C88.3495 46.3629 84.6401 45.2333 83.8723 42.0261L85.2359 42.1998C85.2359 42.1998 84.1057 37.8852 86.549 36.6469C86.2379 36.3217 84.0492 35.6687 84.0492 35.6687C84.0492 35.6687 86.5858 35.495 87.7425 35.9761C87.7425 35.9761 87.5347 35.56 86.9645 35.1217C86.3985 34.6896 85.6419 34.4135 85.6419 34.4135C85.6419 34.4135 88.4905 34.2523 89.3351 35.1333C89.3351 35.1333 88.4905 33.5324 87.7938 32.9703C87.7938 32.9703 89.4916 33.5324 90.4876 34.7325L91.1827 34.6514C91.1827 34.6514 91.028 32.9703 90.2594 31.6072C90.2594 31.6072 91.7956 32.8081 92.4907 34.7325C92.4907 34.7325 93.0404 35.5325 94.5245 35.3704L94.4929 35.4737L94.5391 35.5923C94.5451 35.6039 94.7579 36.1767 95.1213 36.8422C95.4641 37.4632 95.9095 38.1714 96.502 38.583C96.5789 38.8093 96.7601 39.3019 97.0405 39.848C97.3936 40.5286 97.886 41.3019 98.5922 41.7616V41.8053C98.5922 42.2106 98.6025 43.0436 98.7016 43.881C98.8043 44.7309 98.9547 45.5737 99.371 46.1145C100.097 47.0232 103.23 51.9052 105.478 56.3882C105.956 57.3343 106.235 58.129 106.23 58.7499C106.23 58.8087 106.23 58.8755 106.224 58.9334ZM56.9538 30.3039C43.7899 30.3039 33.1173 41.4266 33.1173 55.1437C33.1173 68.8607 43.79 79.9789 56.9538 79.9789C70.1177 79.9789 80.7853 68.8606 80.7853 55.1437C80.7853 41.4267 70.1118 30.3039 56.9538 30.3039ZM70.7033 69.8174H47.1942V66.5639H48.2423C49.3939 66.5639 50.3069 65.5732 50.3069 64.3723L50.2855 43.3349C50.2855 42.1348 49.352 41.162 48.2004 41.162H47.2147V38.7005H60.8547V41.1825H59.7656C58.614 41.1825 57.6719 42.1786 57.6719 43.3785L57.6608 65.8663H64.477C65.4003 65.8663 66.2458 64.93 66.1629 63.9455C66.1381 63.647 66.1065 63.2061 66.1065 62.8907C66.1065 61.0207 67.1495 59.3779 68.7063 58.5495L70.2459 60.1566C69.4423 60.9228 68.9396 62.0203 68.9396 63.2426C68.9396 64.6859 69.6398 65.9581 70.7084 66.7082L70.7033 69.8174ZM15.0761 62.1015C15.0761 62.1015 14.3657 62.6957 14.4075 62.9665C14.4956 63.4912 15.0572 63.1447 15.206 62.9888C17.6759 60.3349 22.1684 58.6573 22.1222 58.3874C22.0804 58.1121 18.2332 59.2738 15.0761 62.1015ZM82.902 86.4556L78.2684 80.7023L77.4383 81.4266L82.678 87.9318L84.8948 85.9896L84.2913 85.2386L82.902 86.4556ZM56.4964 88.7469L54.8678 97.2691L55.9271 97.2468L56.2006 95.5872L57.8198 95.5595L58.1515 97.2095L59.2424 97.189L57.3505 88.7309L56.4964 88.7469ZM57.6437 94.6847L56.3459 94.706L56.923 90.3861L56.9461 90.379L57.4078 93.4633L57.6437 94.6847ZM62.1679 88.3193L58.6191 88.779L58.7329 89.7492L59.9981 89.5871L60.8761 97.042L61.9507 96.9066L61.0736 89.4499L62.2824 89.2931L62.1679 88.3193ZM56.9512 98.4683C55.6979 98.4683 54.6806 99.5303 54.6806 100.837C54.6806 102.146 55.6979 103.2 56.9512 103.2C58.2028 103.2 59.221 102.146 59.221 100.837C59.221 99.5303 58.2028 98.4737 56.9512 98.4683ZM56.9512 102.703C55.9621 102.703 55.1628 101.871 55.1585 100.837C55.1628 99.8038 55.9621 98.9717 56.9512 98.9717C57.9395 98.9717 58.738 99.8038 58.7431 100.837C58.738 101.866 57.9395 102.703 56.9512 102.703ZM66.8793 87.0615C64.8814 87.7359 65.7021 90.429 66.1577 91.8892C66.6091 93.3431 67.4709 96.0247 69.4636 95.3485C71.4556 94.6741 70.6408 91.981 70.1843 90.5217C69.7338 89.0678 68.8721 86.3862 66.8793 87.0615ZM69.1465 94.3445C68.3377 94.6198 67.782 93.2291 67.2469 91.516C66.7134 89.8019 66.3817 88.3427 67.1904 88.0665C68.0052 87.7903 68.56 89.1801 69.0952 90.8942C69.6286 92.6038 69.9612 94.0683 69.1465 94.3445ZM19.8443 49.3846C19.6315 53.8355 23.193 52.354 23.193 52.354C20.9335 51.57 19.8443 49.3846 19.8443 49.3846ZM74.9219 83.2712L77.8739 91.3979L78.7604 90.7974L78.1492 89.2348L79.5085 88.3146L80.6292 89.5306L81.5423 88.9142L75.6374 82.7831L74.9219 83.2712ZM76.135 84.4107L78.0919 86.7617L78.9169 87.6722L77.826 88.4062L76.1154 84.4204L76.135 84.4107ZM62.9617 88.18L64.5134 96.5161L65.576 96.3004L64.021 87.9689L62.9617 88.18ZM57.4399 100.88C57.6955 100.771 57.881 100.539 57.8793 100.177C57.8759 99.685 57.5186 99.3517 56.9167 99.3464C56.6722 99.3464 56.4191 99.3927 56.1951 99.5068L56.1541 99.5246V102.139H56.6525V101.032H56.7918C56.9577 101.037 57.0286 101.092 57.1039 101.254L57.5134 102.139H58.0682L57.5963 101.129C57.5493 101.037 57.5031 100.951 57.4399 100.88ZM56.862 100.578H56.6525V99.8417C56.7252 99.8257 56.8235 99.8141 56.9167 99.8141C57.2698 99.8203 57.3732 99.9566 57.3783 100.187C57.3732 100.476 57.233 100.562 56.862 100.578ZM91.6756 56.2356C91.6397 56.42 92.6143 56.6462 93.8539 57.4409C95.0542 58.2142 96.4947 59.5327 98.1096 60.992C98.255 61.1007 98.0891 61.3342 98.0463 61.2967C93.7761 57.8419 89.5794 57.3287 89.6255 57.9007C89.6468 58.1341 90.5958 58.1394 91.7901 58.5991C93.5272 59.2736 95.8988 60.5493 97.6531 61.8678C97.7711 61.9507 97.6317 62.0852 97.559 62.0701C92.6193 60.2536 88.1465 59.205 88.2046 59.8357C88.2251 60.1012 89.6255 60.1279 91.3489 60.6313C93.7299 61.3288 96.8494 62.5707 98.9131 63.3886C98.9756 63.3681 99.256 63.4687 99.8578 62.936C100.335 62.4691 100.267 62.2313 100.267 62.2313C95.6192 56.9661 91.7902 55.6191 91.6756 56.2356ZM34.7018 79.8806L29.251 86.1899L30.0503 86.9409L35.5029 80.6307L34.7018 79.8806ZM38.531 82.9951L36.863 85.4762L35.2019 88.4161L35.1737 88.4232L37.1691 81.9991L36.3176 81.3773L31.6429 88.336L32.5304 88.981L34.2479 86.4269L35.6799 83.9939L35.9338 83.5021L35.962 83.4968L33.9214 89.9958L34.7404 90.5963L39.4158 83.6376L38.531 82.9951ZM24.4678 58.6187C23.8342 56.5447 22.339 56.0147 22.339 56.0147C24.0053 59.3163 22.8118 61.556 22.8118 61.556C22.8118 61.556 24.5789 61.7716 25.6758 60.8192C26.5426 58.0637 24.5499 55.7278 24.5499 55.7278C24.8123 56.9938 24.4678 58.6187 24.4678 58.6187ZM53.0637 91.586L52.8645 94.9927L52.8431 95.0079L51.8206 88.3467L50.7947 88.1962L49.6577 96.6025L50.7263 96.7611L51.1469 93.6733L51.3649 90.8234L51.3752 90.2729L51.4008 90.2497L52.4071 97.0035L53.4039 97.1488L54.5409 88.7415L53.4663 88.5846L53.0637 91.586ZM47.9197 87.4541L46.6689 87.1093L44.5582 95.3108L45.6004 95.603L46.6323 91.586L46.6536 91.5914L47.0426 96.003L48.1275 96.3059L47.7018 91.9121C48.6131 91.986 49.1338 90.8742 49.3313 90.1054C49.8613 88.0438 48.6822 87.6724 47.9197 87.4541ZM48.1635 90.0332C47.9515 90.8608 47.5463 91.3063 46.7777 91.0336L47.4745 88.3253L47.6403 88.3689C48.4388 88.5685 48.3661 89.2492 48.1635 90.0332ZM44.2463 91.1271L44.5985 90.2175L43.0896 89.5814L44.0462 87.1038L45.7407 87.8174L46.0938 86.9078L43.3948 85.7746L40.3445 93.6464L43.0401 94.7805L43.3897 93.8727L41.6987 93.1582L42.7366 90.4874L44.2463 91.1271ZM42.4664 86.4491L42.9075 85.5831L39.7478 83.837L39.3067 84.702L40.4326 85.3248L37.0497 91.9592L38.0038 92.4884L41.3875 85.8557L42.4664 86.4491Z" fill="#00338D"/>
</g>
<defs>
<filter id="filter0_d_75_251" x="0.14873" y="0.7" width="113.6" height="112.26" filterUnits="userSpaceOnUse" color-interpolation-filters="sRGB">
<feFlood flood-opacity="0" result="BackgroundImageFix"/>
<feColorMatrix in="SourceAlpha" type="matrix" values="0 0 0 0 0 0 0 0 0 0 0 0 0 0 0 0 0 0 127 0" result="hardAlpha"/>
<feOffset/>
<feGaussianBlur stdDeviation="3.15"/>
<feComposite in2="hardAlpha" operator="out"/>
<feColorMatrix type="matrix" values="0 0 0 0 0 0 0 0 0 0.321569 0 0 0 0 0.607843 0 0 0 1 0"/>
<feBlend mode="normal" in2="BackgroundImageFix" result="effect1_dropShadow_75_251"/>
<feBlend mode="normal" in="SourceGraphic" in2="effect1_dropShadow_75_251" result="shape"/>
</filter>
</defs>
</svg>
